<svg width="160" height="48" fill="none" xmlns="http://www.w3.org/2000/svg"><path d="M95.9 18.96c-1.596 0-2.827.576-3.97 1.78v-1.5h-3.137V34h3.375v-8.56c0-1.96 1.151-3.2 2.898-3.2.318 0 .596.04.794.08l2.342-3.12c-.913-.16-1.707-.24-2.302-.24zm29.1.28h-3.89l-3.593 4.816-3.593-4.816h-3.891l5.491 7.436L110.033 34h3.97l3.494-4.668L120.99 34H125l-5.526-7.312L125 19.24zm-70.865-3.32c-1.15 1.56-1.429 2.08-2.54 2.08H35v20h6.51c1.47 0 2.899-.72 3.812-1.92 1.191-1.6 1.35-2.08 2.501-2.08h16.634V14h-6.55a4.71 4.71 0 00-3.772 1.92zm5.161 12.92H52.35c-1.509 0-2.898.64-3.811 1.88-1.191 1.6-1.43 2.08-2.541 2.08H40.12v-9.6h6.948c1.508 0 2.898-.72 3.811-1.92 1.191-1.56 1.509-2.04 2.58-2.04h5.836v9.6zm24.932-4.92c1.47-.84 2.501-2.32 2.501-4.28 0-2.88-2.183-5.64-5.36-5.64h-9.527v20h9.528c3.454 0 5.836-2.48 5.836-5.6 0-1.84-.834-3.44-2.978-4.48zm-9.012-6.8h5.876c1.469 0 2.342 1.4 2.342 2.64 0 1.52-1.31 2.56-2.54 2.56h-5.678v-5.2zm5.677 13.76h-5.677v-5.44h5.876c1.508 0 2.74 1.32 2.74 2.68 0 1.52-1.55 2.76-2.939 2.76z" fill="#F46A35"/><path d="M106.658 29.76c-.555.88-1.627 1.4-2.818 1.4-1.866 0-3.415-1.28-3.415-3.24h10.084c.159-.6.199-.88.199-1.4 0-4.48-2.74-7.56-6.868-7.56-4.05 0-6.908 2.92-6.908 7.68 0 4.64 2.74 7.64 6.987 7.64 2.978 0 5.598-1.48 6.352-4.52h-3.613zm-2.818-7.68c1.866 0 3.295 1.2 3.255 3h-6.63c0-1.76 1.509-3 3.375-3z" fill="#F46A35"/></svg>