<svg width="160" height="48" fill="none" xmlns="http://www.w3.org/2000/svg"><path d="M46.605 18.9c-4.07 0-7.248 3.262-7.248 7.63 0 4.367 3.099 7.601 7.248 7.601s7.301-3.29 7.301-7.63c0-4.311-3.099-7.601-7.301-7.601zm.027 12.084c-2.317 0-4.015-1.901-4.015-4.454 0-2.581 1.67-4.48 3.988-4.48 2.344 0 4.04 1.928 4.04 4.48 0 2.553-1.696 4.454-4.013 4.454zm8.163-8.765h2.02v11.63h3.234V19.183h-5.254v3.036zm-23.575-.17c1.698 0 3.045 1.105 3.557 2.75h3.422c-.62-3.517-3.368-5.9-6.951-5.9C27.179 18.9 24 22.163 24 26.53c0 4.369 3.099 7.602 7.248 7.602 3.502 0 6.304-2.383 6.924-5.929h-3.395c-.485 1.646-1.832 2.78-3.53 2.78-2.345 0-3.988-1.9-3.988-4.453.001-2.581 1.618-4.482 3.961-4.482zm85.004 3.063l-2.371-.368c-1.132-.17-1.94-.567-1.94-1.504 0-1.021 1.051-1.531 2.479-1.531 1.562 0 2.56.709 2.775 1.872h3.126c-.351-2.95-2.507-4.68-5.82-4.68-3.422 0-5.685 1.843-5.685 4.453 0 2.496 1.482 3.943 4.472 4.396l2.371.369c1.159.17 1.806.652 1.806 1.56 0 1.163-1.132 1.645-2.694 1.645-1.914 0-2.992-.823-3.153-2.07h-3.179c.297 2.865 2.424 4.878 6.304 4.878 3.53 0 5.873-1.702 5.873-4.624 0-2.61-1.696-3.97-4.364-4.396zm-57.792-11.97c-1.185 0-2.075.907-2.075 2.155 0 1.248.889 2.155 2.075 2.155 1.186 0 2.075-.907 2.075-2.155 0-1.248-.89-2.155-2.075-2.155zm47.446 11.062c0-3.176-1.832-5.303-5.711-5.303-3.665 0-5.712 1.957-6.117 4.964h3.207c.161-1.163 1.024-2.127 2.856-2.127 1.644 0 2.452.765 2.452 1.702 0 1.22-1.482 1.531-3.314 1.73-2.48.283-5.55 1.19-5.55 4.595 0 2.638 1.86 4.34 4.823 4.34 2.317 0 3.771-1.022 4.499-2.64.108 1.447 1.132 2.384 2.56 2.384h1.886v-3.035h-1.59v-6.61h-.001zm-3.179 3.688c0 1.958-1.616 3.404-3.584 3.404-1.212 0-2.236-.539-2.236-1.673 0-1.446 1.644-1.844 3.152-2.013 1.455-.142 2.263-.483 2.668-1.136v1.418zM85.537 18.9c-1.806 0-3.315.794-4.392 2.127V13h-3.233v20.849h3.179V31.92c1.078 1.39 2.614 2.212 4.446 2.212 3.88 0 6.816-3.233 6.816-7.602 0-4.368-2.99-7.63-6.816-7.63zm-.485 12.084c-2.317 0-4.015-1.901-4.015-4.454 0-2.552 1.724-4.48 4.041-4.48 2.345 0 3.988 1.9 3.988 4.48 0 2.553-1.697 4.454-4.014 4.454zM70.179 18.9c-2.101 0-3.476.907-4.284 2.184v-1.9h-3.207v14.663h3.233v-7.97c0-2.24 1.347-3.829 3.341-3.829 1.86 0 3.017 1.39 3.017 3.404v8.397h3.233v-8.651c.001-3.689-1.803-6.298-5.333-6.298zM136 26.048c0-4.197-2.91-7.147-6.817-7.147-4.149 0-7.194 3.29-7.194 7.63 0 4.566 3.261 7.601 7.248 7.601 3.368 0 6.009-2.1 6.682-5.077h-3.369c-.485 1.305-1.67 2.042-3.26 2.042-2.075 0-3.638-1.361-3.987-3.744h10.696v-1.305H136zm-10.508-1.135c.512-2.042 1.967-3.035 3.637-3.035 1.832 0 3.233 1.107 3.557 3.035h-7.194z" fill="#0052FF"/></svg>