<svg width="160" height="48" fill="none" xmlns="http://www.w3.org/2000/svg"><path fill-rule="evenodd" clip-rule="evenodd" d="M77.561 17.898c-.887-.741-2.414-1.12-4.56-1.12h-4.856V31.77h3.625v-4.748h1.631a6.183 6.183 0 004.341-1.3 5.057 5.057 0 001.565-3.875 4.897 4.897 0 00-1.746-3.97v.02zm-4.255 5.745H71.77v-3.485h1.383c1.68 0 2.519.588 2.519 1.766 0 1.158-.792 1.738-2.366 1.738v-.02zm12.212-6.866H81.7v14.994h8.176v-3.428H85.49l.028-11.566zm11.81 0l-5.943 14.994h4.073l.783-2.174h5.17l.716 2.174h4.121l-5.905-14.994h-3.015zm0 9.752l1.555-5.108 1.536 5.108h-3.09zm10.809 5.242h3.816V16.777h-3.816v14.994zm18.499-12.145a6.09 6.09 0 00-1.803-1.719 8.714 8.714 0 00-4.685-1.082h-4.989V31.77h5.838a6.608 6.608 0 005.086-2.06 7.716 7.716 0 001.907-5.47 7.737 7.737 0 00-1.364-4.615h.01zm-6.02 8.717h-1.632v-8.176h1.632a3.35 3.35 0 012.672 1.073 4.523 4.523 0 01.953 3.067c0 2.685-1.211 4.03-3.634 4.036h.009zM34.36 12.175L42.748 10l2.894 2.937 2.933-2.892 8.357 2.31 2.177 8.392-2.94 2.891 2.894 2.943-2.314 8.353-8.389 2.175-2.894-2.937-2.933 2.891-8.356-2.31L32 26.362l2.94-2.892-2.888-2.943 2.308-8.352zm3.239 1.607l4.42-1.149 1.955 1.969-2.823 2.769-3.552-3.589zm-1.688 1.66l-1.212 4.401-.027.026 1.956 1.936 2.816-2.769-3.533-3.595zm2.379 8.054l2.816-2.775 2.776 2.833-2.822 2.776-2.77-2.834zm-1.695 1.659l-1.955 1.936 1.14 4.415 3.585-3.53-2.77-2.821zm.848 8.042l3.591-3.537 2.777 2.82-1.956 1.937-4.412-1.22zm8.075-7.971l-2.796 2.775 2.796 2.821 2.797-2.75-2.797-2.846zm1.715-1.672l2.848-2.762 2.77 2.82-2.816 2.776-2.802-2.834zm-1.617-7.293l-2.822 2.775 2.777 2.82 2.815-2.775-2.77-2.82zm1.688-1.633l1.956-1.937 4.406 1.22-3.585 3.53-2.777-2.813zm8.024.974l-3.591 3.531 2.776 2.82 1.956-1.936-1.14-4.415zm-3.663 12.47l2.816-2.769 1.955 1.937-1.212 4.402-3.559-3.57zm-1.688 1.666l-2.822 2.769 1.935 1.968 4.42-1.149-3.533-3.588z" fill="#131313"/></svg>