<svg width="160" height="48" viewBox="0 0 160 48" fill="none" xmlns="http://www.w3.org/2000/svg"><path d="M34.318 19.464c-2.523 0-3.76 2.207-3.76 5.154v7.385H27V16.419h3.495v4.043h.06c.747-2.486 2.234-4.495 4.529-4.495 1.613 0 2.294.56 2.294.56l-1.606 3.21c0-.002-.511-.273-1.454-.273zm43.002 2.14V32h-3.465V22.87c0-2.622-.828-4.01-2.944-4.01-2.191 0-3.25 1.756-3.25 5.124V32h-3.435v-9.131c0-2.52-.818-4.01-2.912-4.01-2.391 0-3.311 2.08-3.311 5.124V32h-3.495V16.419h3.495v3.529h.03c.545-2.443 2.031-3.95 4.539-3.95 2.486 0 4.106 1.327 4.721 3.679.586-2.264 2.144-3.68 4.538-3.68 3.34 0 5.49 2.08 5.49 5.606zm-32.95-5.637c-3.217 0-5.32 1.5-6.28 4.206l2.96 1.07c.54-1.634 1.665-2.564 3.382-2.564 1.931 0 3.066.845 3.066 2.14 0 1.326-.903 1.603-2.943 1.93-2.27.363-7.667.482-7.667 5.003 0 2.649 2.23 4.641 5.58 4.641 2.52 0 4.235-1.022 5.029-2.924h.03V32h3.466v-9.584c-.001-4.193-2.127-6.45-6.624-6.45zm3.219 8.7c0 3.267-1.629 5.366-4.232 5.366-1.84 0-2.943-1.025-2.943-2.504 0-1.386 1.134-2.349 3.31-2.745 2.228-.406 3.35-.908 3.865-2.11v1.992zm42.058-8.67c-2.651 0-4.403 1.447-5.152 3.62v-3.198h-3.68V38h3.65v-9.195h.03c.812 2.353 2.503 3.648 5.151 3.648 4.2 0 7.207-3.436 7.207-8.29-.002-4.82-3.007-8.165-7.206-8.165zm-.906 13.564c-2.91 0-4.523-2.096-4.523-5.351s1.806-5.35 4.523-5.35c2.716 0 4.523 2.197 4.523 5.35 0 3.155-1.805 5.35-4.523 5.35zM133 31.93v.098l-14.242.005v-.102c2.053-1.152 3.471-2.325 4.747-3.55h5.847L133 31.93zm-3.529-18.414L125.861 10h-.105s.061 6.552-6 12.51c-5.931 5.832-12.906 5.846-12.906 5.846v.102l3.678 3.576s6.873.068 12.944-5.845c6.05-5.892 5.999-12.673 5.999-12.673z" fill="#000"/></svg>