<svg id="Layer_1" data-name="Layer 1" xmlns="http://www.w3.org/2000/svg" viewBox="0 0 3860.12 462.48"><defs><style>.cls-1{fill:#231f20;}</style></defs><path d="M704,4H628.3V118.5H554.88V62.6H488.11V41.67H550.7V0H422V62.27H281.29V0H152.61V41.67h62V63H147.76v56H73.66v70.29H0V385.7H74V260.06h74.12v63.05h66.11v63H148.37v76.41H281.64V323.38H422.22v139H554.73V385.57H488.88V322.75h66.5V260.07h74.1l-.26-70.56H704ZM288.28,224.05h-73V155h73Zm207.09-.2h-73V154.77h73Z"/><path class="cls-1" d="M842.94,458.52V0h81.11V393h162.21v65.51Z"/><path class="cls-1" d="M1151.15,458.52V393H1110.6V65.5h40.55V0h202.77V65.5h40.55V393h-40.55v65.51ZM1191.7,393h121.66V65.5H1191.7Z"/><path class="cls-1" d="M1418.8,458.52V131h40.56V65.5h40.55V0h121.66V65.5h40.55V131h40.56V458.52h-81.11v-131H1499.91v131ZM1499.91,262h121.66V131H1581V65.5h-40.56V131h-40.55Z"/><path class="cls-1" d="M1727,458.52V0h202.77V65.5h40.55V131h40.55V327.51h-40.55V393h-40.55v65.51ZM1808.12,393h81.1v-65.5h40.56V131h-40.56V65.5h-81.1Z"/><path class="cls-1" d="M2035.21,458.52V0h81.11V65.5h40.55V131h40.56V65.5H2238V0h81.11V458.52H2238v-262h-40.55v131h-40.56v-131h-40.55v262Z"/><path class="cls-1" d="M2343.42,458.52V131H2384V65.5h40.56V0h121.66V65.5h40.55V131h40.55V458.52h-81.1v-131H2424.53v131ZM2424.53,262h121.66V131h-40.56V65.5h-40.55V131h-40.55Z"/><path class="cls-1" d="M2692.18,458.52V393h-40.55v-65.5h81.1V393h121.66V262H2692.18v-65.5h-40.55V65.5h40.55V0H2895V65.5h40.55V131h-81.11V65.5H2732.73v131H2895V262h40.55V393H2895v65.51Z"/><path class="cls-1" d="M3081.49,458.52V65.5h-81.1V0h243.32V65.5H3162.6v393Z"/><path class="cls-1" d="M3268,458.52V0h283.87V65.5H3349.14v131h162.22V262H3349.14V393h202.77v65.51Z"/><path class="cls-1" d="M3576.24,458.52V0h243.32V65.5h40.56V262H3779v65.5h40.55V393h40.56v65.51H3738.46V393H3697.9v-65.5h-40.55v131ZM3657.35,262h81.11v-65.5H3779V65.5H3657.35Z"/></svg>