<svg width="160" height="48" fill="none" xmlns="http://www.w3.org/2000/svg"><path fill-rule="evenodd" clip-rule="evenodd" d="M109.297 17.917h-3.868a.285.285 0 00-.286.283v11.972c0 .156.128.283.286.283h3.868a.284.284 0 00.286-.283V18.2a.285.285 0 00-.286-.283zm17.282-3.68h-3.867a.285.285 0 00-.286.284v15.651a.285.285 0 00.286.284h3.867a.284.284 0 00.287-.284V14.521a.285.285 0 00-.287-.284zm-19.222-2.43a2.442 2.442 0 00-2.452 2.43 2.443 2.443 0 002.452 2.432 2.442 2.442 0 002.453-2.432 2.442 2.442 0 00-2.453-2.43zm34.641 7.684v-1.286a.285.285 0 00-.286-.284h-3.868a.285.285 0 00-.286.284v6.527c0 1.368-.748 2.086-1.8 2.086-1.051 0-1.729-.718-1.729-2.086v-6.527a.285.285 0 00-.286-.283h-3.868a.284.284 0 00-.285.283v6.527c0 2.575.369 3.796.809 4.374.765 1.01 1.901 1.627 3.397 1.627 1.347 0 2.279-.622 3.105-1.266.262-.204.651-.321.651.237v1.117c-.022.75-.515 1.385-1.134 1.72l-.045.021c-.298.151-.632.24-.992.23-.01 0-.858-.008-1.318-.084a.281.281 0 00-.338.252l-.288 3.313a.29.29 0 00.059.201.29.29 0 00.181.108c1.449.225 2.986.18 4.601-.371 2.553-.87 3.722-2.75 3.722-5.472V19.504l-.002-.013zm-22.334-1.574h-1.744a.285.285 0 01-.286-.284v-3.112a.285.285 0 00-.286-.284h-3.867a.285.285 0 00-.287.284v3.112a.285.285 0 01-.286.284h-1.202a.284.284 0 00-.286.283v3.29c0 .158.128.284.286.284h1.202c.158 0 .286.127.286.284v5.433c0 1.79 1.242 3.242 3.27 3.242 1.483 0 2.758-.23 3.287-.483.116-.055.2-.148.2-.272v-2.663a.285.285 0 00-.33-.28c-.639.095-1.987.385-1.987-1.298v-3.68c0-.156.128-.283.286-.283h1.744a.284.284 0 00.286-.283V18.2a.284.284 0 00-.286-.284zm-60.391 4.07c1.537 0 2.423-.739 2.423-1.917v-.047c0-1.27-.932-1.917-2.447-1.917h-2.674a.284.284 0 00-.285.283v3.316c0 .156.127.282.285.282h2.698zm-7.504-7.48c0-.156.128-.282.286-.282h7.428c2.493 0 4.217.647 5.313 1.756.955.923 1.444 2.171 1.444 3.765v.046c0 2.345-1.196 3.942-3.049 4.83a.279.279 0 00-.117.411l3.396 4.92a.282.282 0 01-.235.444h-4.473a.386.386 0 01-.32-.17l-3.026-4.512a.488.488 0 00-.407-.216h-1.434a.284.284 0 00-.285.283v4.332a.284.284 0 01-.285.283h-3.95a.284.284 0 01-.285-.283V14.507zm24.382 8.319c0 .156-.12.282-.267.282h-3.952a.275.275 0 01-.267-.282c0-1.226.97-2.192 2.225-2.192 1.352 0 2.26.967 2.26 2.192zm-2.454-5.16c-3.936 0-6.379 3.062-6.379 6.671 0 3.608 2.678 6.396 6.38 6.396 3.313 0 5.275-1.43 6.171-3.566.077-.185-.068-.389-.27-.389h-3.385a.5.5 0 00-.358.157 2.328 2.328 0 01-1.76.745h-.006c-1.44 0-2.578-.744-2.578-1.969a.282.282 0 01.283-.282h8.107a.286.286 0 00.286-.285v-.807c0-3.609-2.248-6.671-6.49-6.671zm24.356-.023c-1.734 0-2.973.695-4.027 1.816a.22.22 0 01-.278.038.22.22 0 01-.07-.07c-.709-1.14-1.932-1.784-3.5-1.784-.055 0-.112 0-.17.002a4.322 4.322 0 00-3.2 1.578c-.13.16-.392.072-.392-.135v-.893a.276.276 0 00-.277-.274h-3.877a.285.285 0 00-.286.284v11.967c0 .157.128.283.286.283h3.868a.285.285 0 00.286-.283v-6.528c0-1.367.747-2.085 1.799-2.085s1.73.718 1.73 2.085v6.528c0 .157.127.283.285.283h3.868a.284.284 0 00.286-.283v-6.528c0-1.367.771-2.085 1.823-2.085 1.051 0 1.73.718 1.73 2.085v6.528c0 .157.127.283.285.283h3.867a.284.284 0 00.286-.283V22.23c0-2.92-1.635-4.588-4.322-4.588zm-56.981 8.66l-9.66-7.002a1.392 1.392 0 00-1.631 0l-4.305 3.12a1.16 1.16 0 01-1.623-.256 1.149 1.149 0 01-.051-1.287c.08-.13.184-.243.308-.332l3.052-2.213 2.657-1.926a3.811 3.811 0 014.859.32.847.847 0 001.078.058l5.314-3.852v13.37h.002zm-.122 2.737l-.014.092c-.033.202-.168.494-.316.635-.39.372-.963.401-1.38.098l-4.715-3.42-.034-.025c-.286-.207-.752-.205-1.013.035a.785.785 0 00.066 1.217l.058.041 4.323 3.135c.24.175.418.433.46.728.056.407-.109.79-.432 1.024l-.099.071a1.075 1.075 0 01-1.262 0l-5.361-3.887c-.286-.207-.754-.204-1.014.035a.786.786 0 00.066 1.217l4.381 3.175c.241.175.418.434.459.729.058.407-.107.789-.43 1.024l-.1.072a1.074 1.074 0 01-1.262 0l-.976-.709-4.386-3.179c-.285-.207-.753-.204-1.012.035a.782.782 0 00.065 1.217l4.381 3.176c.241.174.418.433.46.727.056.408-.108.79-.432 1.025l-.096.07a1.071 1.071 0 01-1.136.077l-10.486-7.601V12.932l4.556 3.304 1.437 1.04-2.603 1.887a2.848 2.848 0 00-1.149 1.872 2.837 2.837 0 00.514 2.134 2.854 2.854 0 001.875 1.148 2.861 2.861 0 002.14-.512l3.64-2.639a.807.807 0 01.947 0l9.55 6.926a1.064 1.064 0 01.33.948zm-1.106-17.331l-4.328 3.138a.399.399 0 01-.449.015 5.53 5.53 0 00-5.875-.088.898.898 0 00-.16.09l-1.87 1.356-6.221-4.51 18.903-.001zm2.69-1.459a.855.855 0 00-.607-.25h-23.07a.857.857 0 00-.857.854V30.31c0 .273.132.53.352.691l11.099 8.048a1.605 1.605 0 001.882 0l11.098-8.045a.856.856 0 00.353-.692V10.855a.855.855 0 00-.25-.605zm13.033 28.213c0-.58-.426-.96-1.026-.96H53.08v1.911h1.462c.6 0 1.026-.38 1.026-.95zm-3.55 4.15v-6.044h2.67c1.27 0 1.97.861 1.97 1.894 0 1.024-.708 1.885-1.97 1.885H53.08v2.265h-1.063zm5.321 0v-4.376h.954v.634c.336-.417.862-.743 1.425-.743v.942a1.312 1.312 0 00-.29-.027c-.41 0-.945.272-1.135.589v2.98h-.954zm6.22-2.193c0-.77-.445-1.45-1.262-1.45-.808 0-1.262.68-1.262 1.45 0 .78.454 1.459 1.262 1.459.817 0 1.262-.68 1.262-1.459zm-3.514 0c0-1.259.854-2.292 2.252-2.292 1.398 0 2.252 1.033 2.252 2.292 0 1.25-.854 2.302-2.252 2.302-1.398 0-2.252-1.052-2.252-2.302zm10.679 2.193v-2.855c0-.47-.21-.787-.727-.787-.427 0-.826.29-1.017.58v3.062h-.953v-2.855c0-.47-.2-.787-.718-.787-.426 0-.817.299-1.017.58v3.062h-.954v-4.376h.954v.588c.19-.262.763-.697 1.435-.697.653 0 1.053.326 1.198.797.246-.39.827-.797 1.49-.797.799 0 1.262.435 1.262 1.323v3.162h-.953zm2.007 0h.953v-4.376h-.953v4.376zm-.11-5.5a.587.587 0 01.817-.544.589.589 0 11-.644.961.587.587 0 01-.172-.416zm1.926 4.92l.435-.68c.31.318.917.608 1.48.608.572 0 .872-.236.872-.58 0-.861-2.651-.245-2.651-1.93 0-.716.617-1.323 1.725-1.323.745 0 1.307.263 1.698.607l-.4.67c-.263-.29-.744-.525-1.298-.525-.5 0-.808.236-.808.544 0 .77 2.65.19 2.65 1.93 0 .779-.644 1.368-1.824 1.368-.754 0-1.425-.245-1.88-.69zm6.428-3.126c-.808 0-1.19.625-1.225 1.15h2.47c-.027-.516-.382-1.15-1.245-1.15zM78.76 40.42c0-1.268.926-2.292 2.224-2.292 1.317 0 2.153.997 2.153 2.373v.237h-3.378c.073.652.563 1.204 1.39 1.204.435 0 .935-.172 1.252-.489l.436.625c-.445.417-1.09.644-1.78.644-1.325 0-2.297-.916-2.297-2.302zm4.767 1.613l.436-.68c.309.318.917.608 1.48.608.572 0 .872-.236.872-.58 0-.861-2.652-.245-2.652-1.93 0-.716.618-1.323 1.726-1.323.744 0 1.307.263 1.698.607l-.4.67c-.263-.29-.744-.525-1.298-.525-.5 0-.808.236-.808.544 0 .77 2.651.19 2.651 1.93 0 .779-.645 1.368-1.825 1.368-.754 0-1.426-.245-1.88-.69zm11.36-2.446c0-1.16-.727-2.084-2.07-2.084h-1.2v4.176h1.19c1.317 0 2.08-.941 2.08-2.092zm-4.332 3.026v-6.044h2.253c1.897 0 3.168 1.251 3.168 3.018 0 1.784-1.271 3.026-3.16 3.026h-2.26zm8.191-3.706c-.808 0-1.19.625-1.226 1.15h2.47c-.028-.516-.381-1.15-1.244-1.15zM96.53 40.42c0-1.268.927-2.292 2.225-2.292 1.317 0 2.152.997 2.152 2.373v.237h-3.378c.073.652.563 1.204 1.39 1.204.435 0 .935-.172 1.252-.489l.437.625c-.446.417-1.09.644-1.78.644-1.326 0-2.297-.916-2.297-2.302zm5.14 2.193h.953v-6.044h-.953v6.044zm2.007 0h.953v-4.376h-.953v4.376zm-.109-5.5a.59.59 0 111.007.416.575.575 0 01-.417.173.591.591 0 01-.59-.588zm3.451 5.5l-1.79-4.376h1.027l1.28 3.28 1.28-3.28h1.017l-1.789 4.376h-1.025zm5.003-3.706c-.808 0-1.19.625-1.226 1.15h2.47c-.028-.516-.382-1.15-1.244-1.15zm-2.216 1.513c0-1.268.926-2.292 2.225-2.292 1.316 0 2.152.997 2.152 2.373v.237h-3.378c.073.652.563 1.204 1.389 1.204.436 0 .935-.172 1.253-.489l.436.625c-.445.417-1.09.644-1.78.644-1.325 0-2.297-.916-2.297-2.302zm5.14 2.193v-4.376h.953v.634c.336-.417.863-.743 1.426-.743v.942a1.322 1.322 0 00-.291-.027c-.409 0-.944.272-1.135.589v2.98h-.953zm4.74-3.706c-.808 0-1.19.625-1.226 1.15h2.47c-.028-.516-.382-1.15-1.244-1.15zm-2.216 1.513c0-1.268.926-2.292 2.224-2.292 1.317 0 2.153.997 2.153 2.373v.237h-3.378c.072.652.563 1.204 1.389 1.204.436 0 .935-.172 1.253-.489l.436.625c-.445.417-1.09.644-1.78.644-1.325 0-2.297-.916-2.297-2.302zm8.227.87v-1.73c-.209-.327-.681-.59-1.126-.59-.763 0-1.244.608-1.244 1.45 0 .852.481 1.459 1.244 1.459.445 0 .917-.263 1.126-.589zm0 1.323v-.598a1.764 1.764 0 01-1.408.707c-1.116 0-1.943-.852-1.943-2.302 0-1.413.818-2.292 1.944-2.292.553 0 1.062.245 1.407.716V36.57h.954v6.043h-.954z" fill="#212E61"/></svg>