<svg width="160" height="48" fill="none" xmlns="http://www.w3.org/2000/svg"><path fill-rule="evenodd" clip-rule="evenodd" d="M27.525 16.346c.085.003.162.008.229.017.174.021.147.177.108.411-.973 5.803-1.404 12.055 2.026 15.044.036.033.086.103.069.128-.017.026-.118.012-.16.01-1.687-.105-8.496-2.812-8.207-14.428.005-.186.03-.271.305-.352.922-.268 3.835-.79 5.307-.83h.323zm-10.88 5.85c.16-.114 1.982-1.011 3.657-1.61.335-.107.333.24.35.331 1.564 8.916 5.389 10.038 6.464 10.92.145.096-.04.132-.224.123-7.733.024-10.062-7.088-10.49-9.42-.04-.214.082-.231.243-.344zM14.17 27.85c.397-.484 1.55-1.457 2.03-1.776.146-.096.251.126.38.43.518 1.112 1.291 2.282 2.05 3.052 1.52 1.538 3.18 2.126 3.265 2.195.13.105.128.19-.12.198-5.254.195-7.402-2.29-7.76-3.73-.04-.156-.005-.172.155-.368z" fill="#230B59"/><path d="M42.278 16.156l-2.307 9.276-2.09-9.276h-3.983l3.91 15.776h3.572l2.331-9.25 2.308 9.25h3.57l3.936-15.776H49.59l-2.065 9.276-2.283-9.276h-2.964zm16.948 11.742c-.219.797-.826 1.157-1.603 1.157-1.093 0-1.773-.746-1.895-2.133h7.069V25.92c0-3.443-1.895-5.807-5.247-5.807-3.158 0-5.49 2.467-5.49 6.038 0 3.597 2.21 6.038 5.563 6.038 2.842 0 4.736-1.619 5.125-4.29h-3.522zm-1.676-4.65c.947 0 1.506.72 1.555 1.67H55.8c.243-1.08.85-1.67 1.749-1.67zm16.06 8.684v-7.091c0-3.006-1.773-4.754-4.882-4.754-2.818 0-4.688 1.773-5.004 4.009h3.595c.17-.514.583-.848 1.288-.848.923 0 1.336.642 1.336 1.387v.745c-.438-.334-1.506-.642-2.405-.642-2.38 0-4.202 1.439-4.202 3.674 0 2.441 1.821 3.726 3.983 3.726 1.166 0 2.26-.411 2.624-.797v.591h3.668zm-3.667-3.237c-.243.462-.9.77-1.603.77-.754 0-1.507-.333-1.507-1.13 0-.77.754-1.105 1.507-1.105.704 0 1.36.309 1.603.797v.668zm8.552-13.464h-3.814v16.701h3.814v-16.7zm2.427 12.719c0 2.929 1.457 4.213 4.032 4.213.85 0 1.676-.154 2.113-.36v-3.416a3.13 3.13 0 01-1.215.256c-.752 0-1.165-.385-1.165-1.284v-3.854h2.283V20.37h-2.283v-3.186h-3.765v3.186h-1.604v3.135h1.604v4.445zm6.913 3.982h3.813v-6.988c.194-.797.826-1.26 1.579-1.26.971 0 1.433.694 1.433 1.645v6.603h3.79v-7.58c0-2.569-1.434-4.239-3.863-4.239-1.263 0-2.332.54-2.939 1.26V15.23h-3.813v16.701zm18.875-16.624c-.461-.18-1.045-.308-1.773-.308-2.672 0-4.251 1.747-4.251 4.522v.848h-1.627v3.135h1.627v8.427h3.765v-8.427h2.113V20.37h-2.113v-.617c0-.925.51-1.387 1.361-1.387.34 0 .631.077.898.231v-3.289zm7.936 5.011c-.17-.103-.559-.206-1.044-.206-1.093 0-1.944.514-2.478 1.285V20.37h-3.813v11.562h3.813V25.15c.194-.822.899-1.31 1.943-1.31.607 0 1.117.102 1.579.36v-3.88zm11.744 5.832c0-3.571-2.463-6.038-5.791-6.038-3.303 0-5.586 2.467-5.586 6.038 0 3.572 2.486 6.038 5.79 6.038 3.327 0 5.587-2.466 5.587-6.038zm-3.944 0c0 1.593-.657 2.698-1.847 2.698-1.165 0-1.821-1.105-1.821-2.698s.656-2.723 1.821-2.723c1.19 0 1.847 1.13 1.847 2.723zm4.766 5.781h3.814v-6.988c.195-.797.826-1.26 1.579-1.26.972 0 1.433.694 1.433 1.645v6.603h3.79v-7.58c0-2.569-1.434-4.239-3.863-4.239-1.263 0-2.331.54-2.939 1.259V20.37h-3.814v11.562zm12.642-3.982c0 2.929 1.458 4.213 4.033 4.213.85 0 1.676-.154 2.113-.36v-3.416c-.34.154-.801.256-1.214.256-.754 0-1.167-.385-1.167-1.284v-3.854h2.284V20.37h-2.284v-3.186h-3.765v3.186h-1.603v3.135h1.603v4.445z" fill="#230B59"/></svg>